<svg width="562" height="191" viewBox="0 0 562 191" fill="none" xmlns="http://www.w3.org/2000/svg">
<path d="M232.2 127.573C229.768 127.573 227.415 127.191 225.141 126.429C222.872 125.667 220.89 124.58 219.196 123.169C217.501 121.759 216.304 120.073 215.604 118.112L219.876 116.515C220.355 117.864 221.231 119.023 222.503 119.993C223.776 120.957 225.266 121.701 226.974 122.223C228.675 122.747 230.417 123.008 232.201 123.008C234.292 123.008 236.239 122.659 238.04 121.959C239.842 121.266 241.298 120.295 242.407 119.047C243.516 117.793 244.07 116.319 244.07 114.625C244.07 112.911 243.493 111.5 242.34 110.392C241.187 109.283 239.704 108.407 237.889 107.764C236.075 107.121 234.179 106.627 232.2 106.281C229.095 105.739 226.307 104.999 223.836 104.06C221.372 103.128 219.423 101.808 217.986 100.099C216.549 98.3924 215.831 96.1371 215.831 93.3335C215.831 90.7059 216.593 88.4249 218.118 86.4904C219.637 84.5566 221.644 83.0573 224.139 81.9927C226.627 80.9274 229.314 80.3948 232.201 80.3948C234.569 80.3948 236.884 80.7635 239.146 81.5009C241.408 82.2383 243.402 83.3126 245.128 84.7237C246.861 86.1413 248.105 87.8707 248.861 89.9119L244.523 91.4809C244.051 90.1071 243.178 88.9383 241.906 87.9746C240.633 87.0038 239.149 86.2635 237.455 85.7537C235.76 85.2438 234.008 84.9886 232.2 84.988C230.139 84.9687 228.211 85.312 226.416 86.0179C224.62 86.7238 223.168 87.7004 222.06 88.9476C220.951 90.2013 220.396 91.6632 220.396 93.3335C220.396 95.2924 220.913 96.798 221.946 97.8505C222.979 98.9029 224.387 99.6905 226.17 100.213C227.953 100.736 229.963 101.205 232.2 101.621C235.117 102.119 237.823 102.893 240.318 103.945C242.819 105.004 244.832 106.406 246.357 108.152C247.875 109.903 248.634 112.061 248.634 114.625C248.634 117.234 247.875 119.511 246.357 121.458C244.833 123.405 242.826 124.911 240.337 125.976C237.848 127.04 235.135 127.573 232.2 127.573ZM278.896 118.548L282.969 120.768C281.488 122.829 279.614 124.479 277.347 125.72C275.072 126.961 272.608 127.581 269.955 127.581C266.956 127.581 264.225 126.81 261.761 125.267C259.292 123.723 257.323 121.653 255.854 119.057C254.387 116.455 253.653 113.58 253.653 110.429C253.653 108.042 254.078 105.808 254.929 103.729C255.779 101.656 256.948 99.8325 258.435 98.2574C259.922 96.6759 261.655 95.4409 263.633 94.5524C265.611 93.6575 267.718 93.21 269.955 93.21C272.608 93.21 275.071 93.8304 277.346 95.0712C279.614 96.312 281.488 97.9755 282.968 100.062L278.896 102.245C277.762 100.809 276.404 99.7062 274.822 98.9373C273.234 98.1626 271.612 97.7753 269.955 97.7753C267.763 97.7753 265.775 98.358 263.992 99.5236C262.208 100.689 260.8 102.226 259.768 104.135C258.734 106.051 258.217 108.149 258.217 110.429C258.217 112.71 258.746 114.808 259.805 116.724C260.857 118.639 262.275 120.167 264.058 121.307C265.842 122.448 267.807 123.018 269.955 123.018C271.738 123.018 273.414 122.605 274.983 121.78C276.545 120.954 277.85 119.878 278.896 118.548ZM293.402 126.722H288.837V94.1175H293.402V98.6162C294.555 96.9652 296.055 95.6514 297.901 94.6749C299.747 93.6912 301.756 93.1994 303.93 93.1994C305.19 93.1994 306.409 93.3634 307.588 93.6912L305.727 98.2285C304.813 97.945 303.921 97.8032 303.052 97.8032C301.293 97.8032 299.68 98.2378 298.213 99.107C296.745 99.9762 295.576 101.139 294.706 102.595C293.837 104.05 293.402 105.669 293.402 107.453V126.722ZM310.196 114.238V94.1175H314.761V113.322C314.761 115.104 315.195 116.723 316.065 118.179C316.934 119.634 318.102 120.797 319.571 121.666C321.039 122.535 322.652 122.97 324.41 122.97C326.193 122.97 327.805 122.535 329.248 121.666C330.697 120.797 331.857 119.634 332.727 118.179C333.596 116.723 334.03 115.104 334.03 113.322V94.1175H338.595L338.624 126.722H334.058L334.03 122.158C332.878 123.808 331.381 125.125 329.541 126.108C327.708 127.084 325.704 127.573 323.531 127.573C321.073 127.573 318.834 126.974 316.811 125.777C314.788 124.58 313.182 122.97 311.991 120.948C310.794 118.931 310.196 116.695 310.196 114.238ZM349.717 126.722H345.153V94.1175H349.717V98.6162C350.889 96.9652 352.389 95.6514 354.216 94.6749C356.043 93.6912 358.044 93.1994 360.217 93.1994C362.674 93.1994 364.924 93.8047 366.965 95.0153C369.012 96.2188 370.61 97.8222 371.758 99.8255C372.91 97.8222 374.497 96.2188 376.52 95.0153C378.542 93.8054 380.782 93.2004 383.239 93.2004C385.696 93.2004 387.933 93.7989 389.949 94.996C391.972 96.1931 393.582 97.8029 394.779 99.8255C395.976 101.848 396.574 104.088 396.574 106.545V126.722H392.009V107.547C392.009 105.808 391.584 104.201 390.733 102.727C389.889 101.247 388.755 100.056 387.331 99.1543C385.907 98.2536 384.325 97.8032 382.586 97.8032C380.847 97.8032 379.266 98.2221 377.843 99.0598C376.419 99.8981 375.281 101.048 374.431 102.509C373.587 103.978 373.165 105.657 373.165 107.547V126.722H368.6V107.547C368.6 105.657 368.175 103.978 367.325 102.509C366.48 101.048 365.339 99.8981 363.903 99.0598C362.467 98.2214 360.879 97.8026 359.139 97.8032C357.426 97.8032 355.851 98.2533 354.414 99.1533C352.977 100.053 351.837 101.245 350.993 102.727C350.143 104.201 349.717 105.808 349.717 107.547V126.722ZM431.296 126.722H403.52V81.0756H431.296V85.6399H408.085V99.9865H427.289V104.551H408.085V122.158H431.297L431.296 126.722ZM463.805 100.222L463.635 94.1271H468.2V126.732H463.635L463.475 120.664C462.41 122.731 460.923 124.401 459.014 125.673C457.099 126.946 454.815 127.582 452.162 127.582C449.775 127.582 447.535 127.132 445.443 126.231C443.358 125.324 441.521 124.079 439.933 122.498C438.345 120.91 437.108 119.074 436.221 116.988C435.331 114.897 434.887 112.657 434.887 110.268C434.887 107.919 435.325 105.71 436.2 103.643C437.082 101.583 438.302 99.7692 439.858 98.2005C441.408 96.6383 443.209 95.4158 445.263 94.5331C447.317 93.6504 449.519 93.2094 451.869 93.21C454.585 93.21 456.954 93.8593 458.976 95.158C460.999 96.449 462.609 98.1372 463.806 100.223M452.07 123.15C454.394 123.15 456.394 122.577 458.07 121.43C459.739 120.289 461.025 118.752 461.927 116.818C462.834 114.883 463.287 112.754 463.287 110.429C463.287 108.042 462.831 105.884 461.918 103.956C461.003 102.034 459.708 100.509 458.032 99.3819C456.356 98.2478 454.368 97.6808 452.069 97.6808C449.763 97.6808 447.658 98.251 445.756 99.3915C443.853 100.531 442.344 102.069 441.229 104.003C440.108 105.938 439.547 108.08 439.547 110.429C439.547 112.799 440.123 114.944 441.277 116.866C442.429 118.794 443.957 120.321 445.86 121.449C447.757 122.583 449.827 123.15 452.07 123.15ZM484.796 127.355C483.013 127.311 481.274 126.983 479.579 126.371C477.878 125.767 476.398 124.942 475.138 123.897C473.878 122.851 472.977 121.667 472.435 120.343L476.376 118.642C476.728 119.492 477.377 120.27 478.322 120.976C479.267 121.681 480.348 122.248 481.564 122.678C482.78 123.099 483.986 123.31 485.184 123.31C486.507 123.31 487.745 123.093 488.898 122.658C490.052 122.224 490.993 121.597 491.724 120.778C492.448 119.965 492.811 119.004 492.811 117.894C492.811 116.698 492.42 115.759 491.639 115.079C490.857 114.392 489.868 113.847 488.671 113.444C487.474 113.041 486.245 112.657 484.985 112.292C482.685 111.662 480.654 110.965 478.89 110.203C477.132 109.44 475.758 108.467 474.77 107.283C473.78 106.098 473.285 104.57 473.285 102.699C473.285 100.72 473.843 99.0096 474.959 97.567C476.08 96.1243 477.547 95.0056 479.362 94.211C481.176 93.4164 483.117 93.0197 485.184 93.021C487.836 93.021 490.256 93.5977 492.442 94.7511C494.622 95.8973 496.203 97.4284 497.187 99.3443L493.5 101.527C493.11 100.639 492.49 99.8673 491.639 99.2121C490.788 98.5628 489.827 98.0523 488.756 97.6808C487.679 97.3092 486.586 97.1137 485.477 97.0944C484.084 97.0751 482.789 97.2767 481.592 97.6991C480.402 98.1215 479.441 98.7451 478.71 99.5699C477.985 100.396 477.623 101.408 477.623 102.605C477.623 103.802 477.979 104.709 478.692 105.326C479.41 105.943 480.383 106.444 481.612 106.829C482.84 107.207 484.226 107.648 485.77 108.152C487.748 108.782 489.607 109.497 491.346 110.297C493.085 111.104 494.486 112.105 495.55 113.302C496.616 114.493 497.139 116.002 497.12 117.829C497.12 119.788 496.531 121.496 495.353 122.952C494.181 124.407 492.659 125.522 490.788 126.298C488.924 127.066 486.926 127.419 484.796 127.356M516.852 127.582C513.853 127.582 511.118 126.811 508.649 125.267C506.185 123.723 504.22 121.653 502.752 119.057C501.284 116.455 500.55 113.58 500.55 110.429C500.55 108.042 500.972 105.808 501.816 103.729C502.666 101.656 503.835 99.8325 505.322 98.2574C506.816 96.6759 508.551 95.4409 510.53 94.5524C512.508 93.6575 514.615 93.21 516.852 93.21C519.265 93.21 521.486 93.689 523.515 94.6469C525.55 95.6048 527.302 96.9437 528.769 98.6634C530.237 100.377 531.346 102.387 532.096 104.693C532.846 106.999 533.155 109.487 533.022 112.159H505.369C505.634 114.225 506.293 116.072 507.344 117.697C508.403 119.328 509.752 120.617 511.39 121.562C513.028 122.507 514.849 122.992 516.852 123.018C519.025 123.018 520.988 122.451 522.74 121.317C524.485 120.189 525.89 118.635 526.954 116.657L531.585 117.734C530.281 120.627 528.316 122.989 525.688 124.822C523.055 126.662 520.109 127.582 516.852 127.582ZM505.247 108.473H528.43C528.272 106.451 527.657 104.599 526.586 102.916C525.508 101.228 524.122 99.8798 522.428 98.8717C520.733 97.8637 518.874 97.3596 516.852 97.3596C514.829 97.3596 512.98 97.854 511.305 98.8428C509.635 99.8322 508.268 101.168 507.203 102.85C506.137 104.531 505.485 106.406 505.247 108.472" fill="white"/>
<path fill-rule="evenodd" clip-rule="evenodd" d="M88.6862 17.3051L88.7826 17.2569L88.8318 17.2328L88.9051 17.1595L88.9533 17.1113C88.9533 17.0791 88.9694 17.0547 89.0015 17.038V16.9415L89.0266 16.9165V16.8441L89.0507 16.7959V16.6976L89.0748 16.6493V16.5037L89.0989 16.3822L89.1963 16.3089L89.124 16.2607V16.3822L87.7372 17.4266L88.6862 17.3051ZM89.2204 16.2848C90.1684 16.6252 90.4606 15.7506 90.9215 15.1912L91.0431 15.0948L91.1645 14.9723L89.2204 16.2848ZM121.785 145.083C143.972 118.74 157.873 88.7268 160.715 54.0738C161.752 43.8507 160.542 33.5245 157.169 23.8183C156.002 20.6109 155.03 17.1836 152.162 14.9241C148.954 12.332 145.495 10.0963 141.785 8.21707C133.982 4.17174 125.141 2.57113 116.414 3.62387C107.764 4.69333 100.254 8.33858 93.3276 13.4168L93.2312 13.4901C92.9872 13.6599 92.7934 13.8306 92.9872 14.1941C93.3517 14.4381 93.5947 14.1941 93.8869 14.0244C99.0385 11.5942 104.337 9.52859 109.998 8.75132C121.761 7.1235 131.748 10.2576 139.234 19.8086C145.504 27.7799 147.861 37.1842 148.711 47.0264C149.61 57.2331 148.759 67.3664 146.377 77.307C137.508 114.244 119.161 144.792 86.6456 166.008C86.6135 165.959 86.6135 165.967 86.6456 166.031C88.4914 166.735 90.3632 167.368 92.1617 168.122C93.2553 168.583 94.1058 168.461 95.1512 167.879C105.238 161.839 114.234 154.14 121.76 145.108" fill="#2ECC40"/>
<path fill-rule="evenodd" clip-rule="evenodd" d="M106.831 140.223C125.106 117.987 136.408 92.8349 138.18 63.8427C138.91 52.2512 137.501 40.9269 131.546 30.6469C125.957 21.0227 117.646 15.5548 106.273 15.143C99.4194 14.9 93.0528 16.7227 86.8317 19.3476C86.7835 17.5973 85.9812 18.5202 85.3736 18.958C76.0898 25.4974 67.8335 33.3852 60.8772 42.3609C49.1227 57.3352 40.2632 74.37 34.753 92.5919C32.7606 99.1534 31.3507 105.812 30.3073 112.567C30.1357 113.734 30.4037 114.075 31.6188 114.099C36.4309 114.172 36.4309 114.22 37.1108 109.482L37.2806 108.072C41.5034 86.1209 50.1348 65.2547 62.6526 46.7351C68.5615 37.6857 75.5462 29.3863 83.4536 22.0189C84.2309 22.6033 82.9194 23.016 83.2106 23.5512C83.2106 23.5834 83.235 23.6239 83.2839 23.6727H83.7207L84.6928 23.3805C90.7441 21.7045 96.8436 21.1934 102.967 22.773C113.662 25.5195 120.101 32.8582 123.94 42.7977C128.485 54.5358 128.46 66.6625 126.565 78.8615C123.816 95.8774 117.479 112.114 107.974 126.493C98.9334 140.345 87.9494 152.252 73.1736 160.224C72.9808 160.345 72.6876 160.467 72.8342 160.806L73.1736 161.001C74.5102 161.487 75.896 161.9 77.1593 162.532C78.7148 163.285 79.9299 163.018 81.4362 162.168C91.1391 156.422 99.739 148.99 106.831 140.223ZM140.076 147.926C159.553 124.923 173.695 97.893 181.486 68.7763C182.409 65.8886 182.341 62.775 181.293 59.9304C179.115 53.6567 176.416 47.5761 173.224 41.7524C172.966 47.7753 172.373 53.7792 171.45 59.7365C167.78 80.9812 160.27 101.379 149.287 119.931C139.979 135.922 128.727 150.332 114.39 162.216C110.218 165.615 105.79 168.686 101.146 171.402C103.527 172.301 105.616 173.03 107.658 173.905C108.897 174.464 109.869 174.269 111.012 173.565C121.985 166.596 131.793 157.944 140.076 147.926Z" fill="#2ECC40"/>
<path fill-rule="evenodd" clip-rule="evenodd" d="M95.3045 120.273C95.0374 120.759 94.7221 121.22 94.6247 121.731C93.5825 128.169 91.5493 134.408 88.5975 140.224C89.0121 140.151 89.2783 140.176 89.3998 140.078C90.5339 138.831 91.6435 137.551 92.7287 136.238C105.543 120.624 113.988 101.891 117.201 81.9484C118.902 71.3289 118.756 60.7327 115.33 50.4045C110.64 36.1639 99.6547 26.4683 83.3235 27.8049C79.2414 28.1444 77.7832 29.1647 76.2528 33.3943L76.3975 33.4666L77.4197 33.5399C90.3478 33.6614 99.1446 40.0522 104.369 51.5955C108.938 61.7298 109.278 72.4707 107.941 83.284C106.213 96.3271 101.918 108.899 95.3045 120.273Z" fill="#2ECC40"/>
<path fill-rule="evenodd" clip-rule="evenodd" d="M80.2057 67.1813C80.3021 66.9543 80.3587 66.7599 80.3754 66.5979C80.3709 66.2621 80.2964 65.931 80.1565 65.6258C78.2647 61.0358 75.3176 56.9562 71.5545 53.718C70.2912 52.6977 67.9816 52.3332 67.8842 50.6803C67.7878 49.174 69.0992 47.5944 69.6586 46.0148C69.998 45.0176 70.3867 44.872 71.3848 45.2365C76.9247 47.2295 81.3147 50.6803 84.5549 55.5888C90.1925 64.0944 91.5542 73.6212 91.0932 83.5608C91.045 84.6785 91.0932 85.6987 91.4809 86.72C93.332 91.8678 94.5559 97.22 95.1261 102.661C95.9767 102.176 95.9526 101.397 96.1464 100.79C97.5788 96.2703 98.6197 91.6359 99.2574 86.9379C100.546 77.0234 100.351 67.1813 96.5601 57.7278C92.8667 48.5664 86.718 41.9317 76.8517 39.4283C73.328 38.5295 73.3511 38.5536 71.3356 41.5431C65.0876 50.7911 59.7022 60.5934 55.2473 70.8265C49.2867 84.173 45.0955 98.2411 42.7802 112.674C42.6105 113.816 42.7802 114.132 43.8989 114.059C45.3229 113.963 46.7517 113.963 48.1758 114.059C49.6088 114.181 49.9984 113.524 50.1922 112.237C51.5529 103.876 53.7159 95.7116 56.1953 87.6429C58.2358 80.984 61.4443 74.7389 62.7076 67.8129C63.3151 64.4107 64.4337 61.1541 65.2351 57.8011C65.5996 56.3179 66.0616 56.0025 67.5206 56.829C72.3036 59.5377 76.5934 63.0381 80.2057 67.1813ZM187.303 86.1365C171.724 122.661 151.384 155.056 117.921 177.608C120.496 178.58 122.976 179.455 125.406 180.451C126.378 180.864 127.107 180.694 127.981 180.111C134.662 175.71 140.925 170.707 146.694 165.165C163.705 148.883 177.023 129.904 188.225 109.32C188.63 108.607 188.825 107.838 188.809 107.012C188.798 100.027 188.295 93.0509 187.303 86.1365ZM135.855 184.266C138.845 185.385 141.518 186.283 144.118 187.4C145.43 187.959 146.355 187.668 147.448 186.915C159.72 178.337 170.218 167.887 179.987 156.659C180.643 155.906 180.959 155.032 181.25 154.133C183.487 147.612 185.242 140.935 186.5 134.156C186.646 133.379 186.913 132.529 186.404 131.531C172.357 151.823 156.731 170.318 135.855 184.266ZM69.9498 29.9265C64.9122 33.1041 60.1853 36.7494 55.8318 40.814C43.7112 52.7101 34.1652 66.9706 27.7865 82.7102C23.8172 92.2688 21.1441 102.168 19.767 112.406C19.7188 112.966 19.3533 113.938 20.01 114.034C21.5003 114.277 22.9744 114.277 24.4325 114.034C25.4547 113.84 25.1616 112.576 25.259 111.775C26.0121 105.844 27.3246 100.037 29.0006 94.3258C34.3322 76.3426 42.9271 60.0686 54.7854 45.5037C59.4188 39.9143 64.4736 34.7299 69.9498 29.9506" fill="#2ECC40"/>
<path fill-rule="evenodd" clip-rule="evenodd" d="M50.7188 44.0041L50.3301 43.5673C48.0229 44.7247 45.9147 46.2423 44.085 48.0631C26.2009 64.421 14.4809 86.4276 10.8882 110.397C10.3048 114.382 10.2807 114.334 13.8044 114.285C14.8247 114.237 15.2625 113.97 15.2625 112.925C15.3268 111.758 15.4724 110.616 15.6994 109.498C19.3149 87.1023 29.5176 66.2906 45.0069 49.716C46.87 47.7718 48.7737 45.8602 50.7178 43.981" fill="#2ECC40"/>
</svg>
